Coordinates
version=1
nRows=29
nColumns=22
inDegrees=yes

Units are S.I. units (second, meters, Newtons, ...)
If the header above contains a line with 'inDegrees', this indicates whether rotational values are in degrees (yes) or radians (no).

endheader
time	pelvis_tilt	pelvis_list	pelvis_rotation	pelvis_tx	pelvis_ty	pelvis_tz	hip_flexion_r	hip_adduction_r	hip_rotation_r	knee_angle_r	ankle_angle_r	subtalar_angle_r	hip_flexion_l	hip_adduction_l	hip_rotation_l	knee_angle_l	ankle_angle_l	subtalar_angle_l	lumbar_extension	lumbar_bending	lumbar_rotation
      0.01000000	      5.02751557	     -2.71334240	      2.20368339	     -0.66074072	      0.95384719	      0.53246996	     -5.02841592	      3.39679891	    -13.33399294	    -10.19255190	      9.93370725	      1.28604253	     -2.77656466	     -2.52128495	    -10.13152431	    -14.05226484	     20.26498137	     -7.90045506	    -12.73721406	      3.51104586	    -11.78438189
      0.02000000	      5.02874226	     -2.71319342	      2.20367080	     -0.66076714	      0.95384730	      0.53247152	     -5.02882093	      3.39689422	    -13.33425572	    -10.19222808	      9.93386024	      1.28609989	     -2.77601099	     -2.52136328	    -10.13141908	    -14.05210158	     20.26454465	     -7.90055884	    -12.73679146	      3.51147369	    -11.78427204
      0.03000000	      5.03254193	     -2.71491103	      2.20251641	     -0.66077506	      0.95385285	      0.53244712	     -5.03849927	      3.39709299	    -13.34219715	    -10.18125679	      9.93600973	      1.28761774	     -2.77680334	     -2.52122207	    -10.12719668	    -14.05942127	     20.25548523	     -7.90279091	    -12.73292168	      3.52184299	    -11.77750184
      0.04000000	      5.03426398	     -2.71503888	      2.20268486	     -0.66081121	      0.95385682	      0.53244997	     -5.03884520	      3.39757202	    -13.34266902	    -10.18057635	      9.93601948	      1.28772848	     -2.77584941	     -2.52164478	    -10.12703952	    -14.05910204	     20.25511708	     -7.90292299	    -12.73254066	      3.52157453	    -11.77702833
      0.05000000	      5.04102517	     -2.72255417	      2.21175643	     -0.66083395	      0.95386803	      0.53244413	     -5.05936094	      3.40989220	    -13.36435792	    -10.14999148	      9.93231949	      1.29324513	     -2.77289949	     -2.53237295	    -10.11753717	    -14.07379754	     20.24048390	     -7.90873441	    -12.73443750	      3.52878817	    -11.75158373
      0.06000000	      5.04353731	     -2.72256788	      2.21164825	     -0.66087231	      0.95387257	      0.53244220	     -5.05977361	      3.40982895	    -13.36442359	    -10.14999702	      9.93208346	      1.29334939	     -2.77236859	     -2.53234553	    -10.11740625	    -14.07380628	     20.24042992	     -7.90880958	    -12.73309107	      3.52935894	    -11.75154447
      0.07000000	      5.04899817	     -2.72278317	      2.21294797	     -0.66088499	      0.95387817	      0.53242220	     -5.06516696	      3.40880284	    -13.36510742	    -10.15107097	      9.93020668	      1.29404067	     -2.77489979	     -2.53169350	    -10.11590132	    -14.07893108	     20.23986340	     -7.90936395	    -12.72598580	      3.53464065	    -11.74906546
      0.08000000	      5.05185603	     -2.72291295	      2.21321351	     -0.66092573	      0.95388319	      0.53241977	     -5.06525859	      3.40879034	    -13.36539929	    -10.15062859	      9.92987002	      1.29417521	     -2.77446079	     -2.53184813	    -10.11563777	    -14.07935697	     20.23979515	     -7.90947490	    -12.72484095	      3.53515639	    -11.74842176
      0.09000000	      5.06715074	     -2.73054487	      2.22356021	     -0.66096016	      0.95390164	      0.53239532	     -5.08417746	      3.41856160	    -13.38052322	    -10.14048365	      9.91565324	      1.29951734	     -2.77440312	     -2.54261941	    -10.10403563	    -14.10580795	     20.23791907	     -7.91422603	    -12.73451310	      3.54716123	    -11.72572234
      0.10000000	      5.07231330	     -2.73083054	      2.22641909	     -0.66098332	      0.95390766	      0.53238379	     -5.08683401	      3.41860993	    -13.37987672	    -10.14295557	      9.91407637	      1.30001775	     -2.77695254	     -2.54311094	    -10.10427525	    -14.10769614	     20.23845583	     -7.91466630	    -12.72962098	      3.54936560	    -11.72679825
      0.11000000	      5.07535691	     -2.73088317	      2.22660428	     -0.66102562	      0.95391138	      0.53238157	     -5.08628476	      3.41859760	    -13.37984036	    -10.14279630	      9.91395997	      1.30005440	     -2.77652862	     -2.54311884	    -10.10425135	    -14.10761153	     20.23850758	     -7.91470113	    -12.72848943	      3.54951667	    -11.72683754
      0.12000000	      5.08249393	     -2.73089466	      2.23194343	     -0.66103936	      0.95391796	      0.53236466	     -5.09059557	      3.41846124	    -13.37841620	    -10.14860835	      9.91249846	      1.30027915	     -2.78034664	     -2.54350750	    -10.10315951	    -14.11278131	     20.23875939	     -7.91510425	    -12.72210732	      3.55201170	    -11.72696371
      0.13000000	      5.10153630	     -2.73500275	      2.24187960	     -0.66110497	      0.95394066	      0.53235023	     -5.09986558	      3.42282072	    -13.38171290	    -10.16333207	      9.90593336	      1.30160421	     -2.78552092	     -2.55091729	    -10.09331009	    -14.13195093	     20.24265067	     -7.91759090	    -12.74354153	      3.55963968	    -11.73893363
      0.14000000	      5.10640039	     -2.73489714	      2.24461444	     -0.66113074	      0.95394485	      0.53234158	     -5.10200849	      3.42342922	    -13.38215493	    -10.16478011	      9.90570038	      1.30166433	     -2.78804047	     -2.55024716	    -10.09313641	    -14.13370481	     20.24308530	     -7.91782264	    -12.73865917	      3.56034373	    -11.73903054
      0.15000000	      5.11210152	     -2.73482225	      2.24801206	     -0.66115923	      0.95394827	      0.53233433	     -5.10455442	      3.42332867	    -13.38220954	    -10.16781389	      9.90555668	      1.30163057	     -2.79060438	     -2.55079348	    -10.09229183	    -14.13593936	     20.24357337	     -7.91806560	    -12.73470222	      3.56063302	    -11.73994960
      0.16000000	      5.11529765	     -2.73486304	      2.24825873	     -0.66120554	      0.95394915	      0.53233303	     -5.10397874	      3.42350926	    -13.38222234	    -10.16780466	      9.90557149	      1.30162135	     -2.79029910	     -2.55058010	    -10.09219211	    -14.13590157	     20.24363757	     -7.91808378	    -12.73358958	      3.56062169	    -11.74010109
      0.17000000	      5.13681050	     -2.73514351	      2.25991518	     -0.66125708	      0.95397243	      0.53231339	     -5.11477987	      3.42335168	    -13.38773882	    -10.18927371	      9.90845075	      1.30037151	     -2.80277704	     -2.55278351	    -10.07936413	    -14.14896419	     20.24876634	     -7.91954941	    -12.75210210	      3.56343476	    -11.75708980
      0.18000000	      5.13998580	     -2.73501929	      2.26021680	     -0.66130440	      0.95397459	      0.53231289	     -5.11416583	      3.42368074	    -13.38792448	    -10.18898435	      9.90853157	      1.30035363	     -2.80294676	     -2.55230982	    -10.07932372	    -14.14900851	     20.24881452	     -7.91958145	    -12.75046725	      3.56351632	    -11.75697770
      0.19000000	      5.14630111	     -2.73461563	      2.26350075	     -0.66132569	      0.95397738	      0.53230355	     -5.11787624	      3.42346974	    -13.38825989	    -10.19268700	      9.90895042	      1.30016765	     -2.80730257	     -2.55186895	    -10.07818103	    -14.15162270	     20.24901894	     -7.91982982	    -12.74308022	      3.56390556	    -11.75604396
      0.20000000	      5.14947587	     -2.73463028	      2.26362568	     -0.66137666	      0.95397853	      0.53230221	     -5.11727766	      3.42342535	    -13.38836426	    -10.19255044	      9.90903035	      1.30014948	     -2.80711696	     -2.55183265	    -10.07803981	    -14.15149070	     20.24906514	     -7.91985334	    -12.74185354	      3.56386408	    -11.75596701
      0.21000000	      5.15664250	     -2.73444794	      2.26639887	     -0.66139922	      0.95398412	      0.53229545	     -5.12125419	      3.42321324	    -13.38889804	    -10.19821736	      9.90964629	      1.29992182	     -2.81227780	     -2.55194021	    -10.07573172	    -14.15489060	     20.24933991	     -7.92012876	    -12.73564150	      3.56391245	    -11.75467520
      0.22000000	      5.15981454	     -2.73446307	      2.26637639	     -0.66145101	      0.95398563	      0.53229360	     -5.12067798	      3.42319096	    -13.38906780	    -10.19817689	      9.90973848	      1.29990519	     -2.81206262	     -2.55191660	    -10.07551276	    -14.15477205	     20.24938995	     -7.92015254	    -12.73459259	      3.56388056	    -11.75455801
      0.23000000	      5.18624909	     -2.73527631	      2.27008746	     -0.66150266	      0.95401765	      0.53228363	     -5.13395967	      3.42111328	    -13.41147037	    -10.22463101	      9.91863214	      1.29850791	     -2.83483149	     -2.55295573	    -10.05535748	    -14.16167245	     20.25406175	     -7.92301004	    -12.76006892	      3.56561020	    -11.74452869
      0.24000000	      5.19109017	     -2.73484591	      2.27024055	     -0.66152828	      0.95402158	      0.53227857	     -5.13749447	      3.42058290	    -13.41311066	    -10.22546438	      9.91921535	      1.29845311	     -2.83840502	     -2.55228378	    -10.05553284	    -14.16211263	     20.25408144	     -7.92352961	    -12.75380514	      3.56565128	    -11.74522369
      0.25000000	      5.19393291	     -2.73486338	      2.26999734	     -0.66157573	      0.95402294	      0.53227664	     -5.13723026	      3.42063519	    -13.41334613	    -10.22528038	      9.91927090	      1.29845487	     -2.83802289	     -2.55218827	    -10.05549234	    -14.16186457	     20.25409239	     -7.92357323	    -12.75257090	      3.56553700	    -11.74524102
      0.26000000	      5.19986745	     -2.73506180	      2.26794176	     -0.66159211	      0.95402801	      0.53227939	     -5.14161099	      3.42070459	    -13.41573230	    -10.22847872	      9.91951200	      1.29848383	     -2.84235012	     -2.55253068	    -10.05396375	    -14.16556492	     20.25397899	     -7.92402527	    -12.74594048	      3.56461594	    -11.74507224
      0.27000000	      5.20261662	     -2.73510833	      2.26753149	     -0.66163632	      0.95402921	      0.53227730	     -5.14151685	      3.42072377	    -13.41606965	    -10.22847548	      9.91954737	      1.29849391	     -2.84178085	     -2.55251672	    -10.05383164	    -14.16544220	     20.25399457	     -7.92406930	    -12.74500289	      3.56451940	    -11.74501084
      0.28000000	      5.22459793	     -2.73593581	      2.26725108	     -0.66168306	      0.95405445	      0.53227601	     -5.15518787	      3.41917277	    -13.44345017	    -10.24413727	      9.92173587	      1.29956390	     -2.85319656	     -2.55529660	    -10.04737896	    -14.18573816	     20.25609480	     -7.92848591	    -12.76748469	      3.56503148	    -11.73557495
      0.29000000	      5.22715254	     -2.73601488	      2.26674813	     -0.66172404	      0.95405521	      0.53227437	     -5.15513248	      3.41935884	    -13.44364514	    -10.24408509	      9.92176689	      1.29957880	     -2.85255797	     -2.55515535	    -10.04734853	    -14.18549872	     20.25613661	     -7.92852490	    -12.76645655	      3.56498846	    -11.73573195
